<!-- Generated by IcoMoon.io -->
<svg version="1.1" xmlns="http://www.w3.org/2000/svg" width="614" height="1024" viewBox="0 0 614 1024">
<title>Vector</title>
<g id="icomoon-ignore">
</g>
<path d="M307.2 21.038c-169.697 0-307.2 136.95-307.2 306.586 0 293.315 307.2 675.841 307.2 675.841s307.2-382.587 307.2-675.841c0-169.574-137.503-306.586-307.2-306.586zM307.2 497.259c-43.996 0-86.191-17.478-117.301-48.588s-48.587-73.304-48.587-117.3c0-43.996 17.478-86.191 48.587-117.301s73.305-48.587 117.301-48.587c43.996 0 86.191 17.477 117.301 48.587s48.587 73.305 48.587 117.301c0 43.996-17.478 86.191-48.587 117.3s-73.305 48.588-117.301 48.588z"></path>
</svg>
